# xmcd CD database file
#
# Track frame offsets:
#	150
#	37783
#	70356
#	108853
#	141233
#	176256
#	199897
#	237483
#
# Disc length: 3629 seconds
#
# Revision: 0
# Processed by: cddbd v1.5.1PL0 Copyright (c) Steve Scherf et al.
# Submitted via: CDex 1.51
#
DISCID=6a0e2b08
DTITLE=Terry Oldfield - Yoga Harmony
DYEAR=2004
DGENRE=New Age
TTITLE0=Earth And Sky
TTITLE1=Aum
TTITLE2=Pilgrimage
TTITLE3=Yoga Healing
TTITLE4=The Wave
TTITLE5=Mountain Path
TTITLE6=Nothingness
TTITLE7=The Essence
EXTD=YEAR: 2004
EXTT0=
EXTT1=
EXTT2=
EXTT3=
EXTT4=
EXTT5=
EXTT6=
EXTT7=
PLAYORDER=
